# xmcd
#
# Track frame offsets:
#	150
#	13912
#	27895
#	46240
#	58560
#	70025
#	85515
#	100457
#	115600
#	128177
#
# Disc length: 1865 seconds
#
# Revision: 320652115
# Processed by: cddbd v1.5.2PL0 Copyright (c) Steve Scherf et al.
# Submitted via: EZCDAudioConverter 9.0.6.1
#
DISCID=7807470a
DTITLE=Todays Hot Country
DYEAR=1994
DGENRE=Country
TTITLE0=Tanya Tucker - Lizzie And The Rainman
TTITLE1=Patty Loveless - I'm That Kind Of Girl
TTITLE2=Steve Wariner - Some Fools Never Learn
TTITLE3=Crystal Gayle - I've Cried (The Blue Out Of My Eyes)
TTITLE4=John Anderson - If It Ain't Broke, Don't Fix It
TTITLE5=Lorrie Morgan - Don't Go Changing
TTITLE6=McBride and The Ride - Sacred Ground
TTITLE7=John Anderson - Somewhere Between Ragged And Right
TTITLE8=Mark Chesnutt - Your Love Is A Miracle
TTITLE9=Marty Stuart - Hillbilly Rock
EXTD=
EXTT0=
EXTT1=
EXTT2=
EXTT3=
EXTT4=
EXTT5=
EXTT6=
EXTT7=
EXTT8=
EXTT9=
PLAYORDER=
